<svg xmlns="http://www.w3.org/2000/svg" viewBox="0 0 117.03 135.52"><defs><style>.cls-1{fill:#f2bb57;}.cls-2{fill:#f69856;}.cls-3{fill:#bf2331;}</style></defs><title>Asset 5</title><g id="Layer_2" data-name="Layer 2"><g id="Layer_2-2" data-name="Layer 2"><g id="Layer_3" data-name="Layer 3"><path class="cls-1" d="M103.73,8.94c-4.94-2-10-3.8-15.4-2.84-4.64.82-9,4.33-9.93,9.11A3.45,3.45,0,0,0,78.52,17a22.45,22.45,0,0,0-4.23,15.26,7,7,0,0,0-6.17,1.54,8,8,0,0,0-.94-.11c-3-4.53-10.16-4.28-12.85.44a2,2,0,0,1-.14.26,41,41,0,0,0-3.85,1.66,28.23,28.23,0,0,0-2.05-4C47.23,26.37,43.82,21,39.78,16.84a19.7,19.7,0,0,0-10.92-6A30.82,30.82,0,0,0,15.48,12c-3.36.94-2.6,5.82.8,6,8.28.36,18.83.88,23.31,9.12a2.9,2.9,0,0,0,1,1.08c.23.47.46.94.66,1.41A3.19,3.19,0,0,0,41,31.81a43.14,43.14,0,0,1,.85,8.62,2.85,2.85,0,0,0,.58,1.78l-.15.19a22.45,22.45,0,0,0-4,3.54,23.59,23.59,0,0,0-4.56,7.68,7.56,7.56,0,0,0-4.48,4.86C27,66,23.55,74.83,24.65,82.75c.91,6.58,5.18,11.51,10,15.77.84,5.53,5.81,11,10.17,13.71,4.1,2.56,9.2,1.51,13.45-1,17.45,14.13,30.68-10,35-24.26,2.66-8.75,5.29-19.77,2.42-28.76-2.59-8.07-9.35-15.4-15.48-21.53a3.22,3.22,0,0,0,.44-.89c1.49-5,3-10.07,5.91-14.43a16.32,16.32,0,0,1,10-7.21,2.55,2.55,0,0,0,1.54-.91c1.37.48,2.71,1,4,1.59,1.52.63,3.34-.68,3.74-2.13a3.1,3.1,0,0,0-2.13-3.74Z"/><path class="cls-2" d="M41.3,29.82C37.82,22.29,28.63,17.88,20.59,18c-.41-.28-.82-.54-1.23-.79A3.07,3.07,0,0,0,15,18.68a8.37,8.37,0,0,0-1.93.82,5.17,5.17,0,0,0-1.93,2.05,3,3,0,0,0-1,.09,5.89,5.89,0,0,0-4,4.11c-.59,2,0,4.09.53,6l1,3.32A47.32,47.32,0,0,0,9.9,42.93a3.79,3.79,0,0,0,1.5,1.84c1.11,2.14,3.74,3.45,5.83,4.57a59.15,59.15,0,0,0,8.33,3.73,3.69,3.69,0,0,0,1.57.55l.27.09a2.92,2.92,0,0,0,3.76-2.88c2.61-2.66,5.76-4.79,8.07-7.75,3-3.91,4.23-8.65,2.08-13.29Z"/><path class="cls-2" d="M111.74,29.3c-.36-.79-.76-1.55-1.14-2.32.05-.38.09-.78.11-1.16.08-.55.14-1.09.21-1.66.49-4,.66-8.39-2.4-11.54-1.49-1.53-3.63-.89-4.77.61a6.6,6.6,0,0,1-.49.55,3.12,3.12,0,0,0-3,.77c-.36.35-.71.72-1.08,1.07l-.24.06-.73.3h0s0,0,0,0A23.75,23.75,0,0,0,84.42,32.15a4.52,4.52,0,0,0-.24,6.78,3.87,3.87,0,0,0,1.15.77,4,4,0,0,0,.79,1.68,100.09,100.09,0,0,0,8.58,9.71,3.07,3.07,0,0,0,4.77-.61,185.34,185.34,0,0,0,10.46-16.8,2.11,2.11,0,0,0,.7-.26,3.11,3.11,0,0,0,1.1-4.16Z"/><path class="cls-2" d="M62.08,116.58a3.55,3.55,0,0,0-.57.06l-.16-.1a2.74,2.74,0,0,0-2.75-1.93c-3.19,0-3.78,4.06-1.75,5.55a2.78,2.78,0,0,0,2.75,1.9,3.56,3.56,0,0,0,.58-.06,2.85,2.85,0,0,0,1.92.68c3.91,0,3.92-6.08,0-6.08Z"/></g><g id="_벡터_레이어" data-name=" 벡터 레이어"><path class="cls-3" d="M99.21,55.72c-2.35-.95-4.63-3.21-3.39-5.89,1.2-2.2,3.7-3.25,5.46-5a25.88,25.88,0,0,0,8.65-17.57C111.59,14.65,99.21,4.12,87.11,7.76c-6.55,2.92-9,11.43-10.79,17.83-.54,2.41-.42,4.9-.8,7.32a3.63,3.63,0,0,1-4.5,2.6c-1.55-.4-3-1.45-4.62-1.46-3.85-.17-8-.11-11.48,1.78-1.73,2.51-5.23,3-6.7,0-1.94-9.55-6.44-20.8-17-23.2-8.81-1.13-19.8,3.57-23.57,11.9-2.45,7.83,2.42,18.22,9,22.71a8.59,8.59,0,0,0,6.52,1.73,3.66,3.66,0,0,1,4.5,2A3.58,3.58,0,0,1,27,54.74c-1.6,1.55-4.05,1.13-6.08,1.25-4.9-.2-9.16-3.32-12.52-6.65C-4.64,34-3,15.21,17.11,7.71c17.35-7.74,32.17,4,36.58,20.91A33.27,33.27,0,0,1,69,27.28c1.25-8.94,5.32-20.19,13.41-25,11.53-6,27.1.54,32.36,12.08,5.58,12.77.55,28.92-10.46,37.16A3.53,3.53,0,0,1,99.21,55.72Z"/><path class="cls-3" d="M95.57,59c-1.3-2.21-2.79-5.49-.28-7.41a3.54,3.54,0,0,1,4.91.62c.76,1,.69,2.24,1.42,3.24,2.22,4-3.64,7.45-6.05,3.53Z"/><path class="cls-3" d="M15,58.77c-1-2.86,1.67-3.78,4.13-4.06,2.63-.86,6.5-.5,6.66,2.92.06,1.78-1.82,2.92-3.63,2.62-2.37.53-5.87,1.61-7.16-1.46Z"/><path class="cls-3" d="M20.6,65.34c-3.43-3.09-.1-6.54,2.18-9,1.9-2.55,5.59-5.48,8.16-2.12,2.69,4-2,6.35-4,9.07-1.42,2.21-4.06,3.94-6.36,2Z"/><path class="cls-3" d="M54.42,126.72c-1.52-1-2.24-2.72-3.13-4.25-2-1.31-3.79-2.8-5.61-4.28-12.41-11.29-30.5-23.93-26.6-43.06.66-3.6,2.74-15.48,7.23-15.23,3,0,4.4,3.45,2.81,5.77-4.56,10-5.34,20.84,2.45,29.43a173.88,173.88,0,0,0,23.26,21.31c1,.61.43,2.74,1.48,3.3.94,1.74,2.2,1.94,4.21,2l-.08,0c4.24-.09,5.19-5.49,8.85-6.82,15.4-5.65,24.48-35,25.2-50.14.25-2.91-1.08-7.39,3-8a3.51,3.51,0,0,1,4,3c1.09,19.25-10,54.41-29.54,61.74-3.62,5.94-11.24,9.79-17.46,5.23Z"/><path class="cls-3" d="M56.5,127.64c-2.45-1.37-5.17-2.74-6.34-5.46a8.83,8.83,0,0,1,7.67-12.46c5-.38,11.11,1.69,12.54,7a3.54,3.54,0,0,1-.61,4.12c-9.67-.91-5.5,1.4-5.44-2a1.55,1.55,0,0,0-.47-1.18c-1.58-1.33-5-1.24-6.75-.64-1.72,1.84.12,3,1.77,3.94a9.25,9.25,0,0,0,1.81.76c5.34,1.32-.3,8-4.18,5.91Z"/><path class="cls-3" d="M44.72,78.54c-2.81-5.06,5.37-8,6.61-2.36C53,80.67,46.3,83.07,44.72,78.54Z"/><path class="cls-3" d="M65.11,81.78c-5-2.15-.84-10.37,3.71-6.68C72.71,77.47,69.06,83.42,65.11,81.78Z"/><path class="cls-3" d="M24.15,122.69c-2.76-6.38,27.3-8.4,30.12-5.13a2.34,2.34,0,0,1-2.92,3.58,51,51,0,0,0-21.55,1.72C28,123.58,25.32,125.25,24.15,122.69Z"/><path class="cls-3" d="M28.37,134.84c-2.43-3.07,2.68-5.35,4.5-7.22,6.24-4.33,14.21-7.39,21.85-6.8,3.52.8,2,5.93-1.32,4.52a32.11,32.11,0,0,0-19.84,7.76c-1.4,1.27-3.26,3.58-5.19,1.73Z"/><path class="cls-3" d="M97.92,123a38.41,38.41,0,0,0-24-3.56c-2,.44-4,1-6,1.64a2.32,2.32,0,0,1-3.34-2.9c.54-1.29,2-1.55,3.17-1.93a41.93,41.93,0,0,1,22.71-.94,38.9,38.9,0,0,1,9.83,3.64,2.36,2.36,0,0,1,.84,3.2,2.38,2.38,0,0,1-3.21.83h0Z"/><path class="cls-3" d="M95.58,134.49c-6.6-6.32-16.18-7.9-24.86-9.41-1.73-.21-4,.84-4.91-1.29a2.32,2.32,0,0,1,.87-2.84,2.29,2.29,0,0,0-.55.48c3.34-2.81,11.8.5,15.84,1.25,4.72,1.17,9.4,2.68,13.35,5.56a28.5,28.5,0,0,1,3.56,2.94c2.13,2.16-1.11,5.43-3.31,3.3Z"/><path class="cls-3" d="M99.85,60c-.88-1-2.25-2-1.84-3.65a2.35,2.35,0,0,1-1.49-2.88c.76-3,7.27-2.65,9.55-2.76A2.42,2.42,0,0,1,107.64,54c-.53,1.56-2.12,1.68-3.36,1.82,1.76,2,.53,5.1-1.89,4.52-1.32-.2-2.81-1.52-2.54-.26Z"/><path class="cls-3" d="M93.38,55.17A33.5,33.5,0,0,0,84.6,42.78c-1.67-1.8-5.32-2.67-5.14-5.57,1.58-10.73,8.32-23.11,20-24.89,4-.46,9.52.15,11.63,4.12,1.49,2-1.6,4.3-3.15,2.31-1.2-2.58-4.67-2.67-7.18-2.66C90.67,17.11,85,28,83.42,37A36.21,36.21,0,0,1,97,53.65a1.94,1.94,0,0,1-3.58,1.52Z"/><path class="cls-3" d="M40.84,40.27c-.3-8.53-6.52-16.65-14.32-20C18.73,17.7,8.83,20.65,5,28.24c-.82,1.5-1.32,4.33-3.65,3.45a2,2,0,0,1-1-2.55c4.11-12.4,20.71-17.55,31.46-10.51a29.65,29.65,0,0,1,12.1,16c.47,1.77,1.05,3.7.58,5.49A2,2,0,0,1,40.84,40.27Z"/><path class="cls-3" d="M27,63.68a2,2,0,0,1-1-2.55,47.42,47.42,0,0,1,6-11.42,99.74,99.74,0,0,1,8-9.35c.81-.84,1.55-2,2.85-2.07a2,2,0,0,1,1,3.6c-4.55,4.87-9.17,9.8-12.14,15.8-1.37,1.84-1.49,7-4.64,6Z"/></g></g></g></svg>