<?xml version="1.0" encoding="UTF-8"?>
<svg id="Layer_2" data-name="Layer 2" xmlns="http://www.w3.org/2000/svg" viewBox="0 0 76.97 89.14">
  <defs>
    <style>
      .cls-1 {
        fill: #bf2331;
      }

      .cls-1, .cls-2, .cls-3 {
        stroke-width: 0px;
      }

      .cls-2 {
        fill: #f2bb57;
      }

      .cls-3 {
        fill: #f69856;
      }
    </style>
  </defs>
  <g id="Layer_3" data-name="Layer 3">
    <path class="cls-2" d="M68.22,5.88c-3.25-1.34-6.57-2.5-10.13-1.87-3.05.54-5.93,2.85-6.53,5.99-.08.41-.05.82.08,1.19-2.13,2.92-3.1,6.47-2.78,10.04-1.48-.36-2.94.08-4.06,1.01-.21-.04-.42-.06-.62-.07-1.94-2.98-6.68-2.82-8.45.29-.03.06-.06.12-.09.17-.86.32-1.71.68-2.53,1.09-.38-.91-.84-1.78-1.35-2.62-.7-3.76-2.94-7.29-5.6-10.03-1.96-2.02-4.38-3.5-7.18-3.96-2.95-.49-5.94-.05-8.8.76-2.21.62-1.71,3.83.53,3.93,5.44.24,12.38.58,15.33,6,.18.33.4.55.65.71.15.31.3.62.43.93-.22.39-.3.89-.18,1.48.38,1.88.56,3.76.56,5.67,0,.48.15.87.38,1.17-.03.04-.07.08-.1.12-.96.68-1.86,1.46-2.62,2.33-1.33,1.5-2.33,3.22-3,5.05-1.34.54-2.47,1.63-2.94,3.2-1.46,4.92-3.73,10.75-3.01,15.96.6,4.33,3.41,7.57,6.56,10.37.55,3.64,3.82,7.23,6.69,9.02,2.69,1.68,6.05.99,8.84-.69,11.48,9.29,20.18-6.57,23.04-15.96,1.75-5.75,3.48-13,1.59-18.91-1.7-5.31-6.15-10.13-10.18-14.16.12-.17.22-.36.29-.59.98-3.28,1.97-6.62,3.89-9.49,1.56-2.33,3.82-4.16,6.57-4.74.45-.09.78-.31,1.01-.6.9.32,1.78.68,2.65,1.05,1,.41,2.2-.45,2.46-1.4.32-1.15-.39-2.05-1.4-2.46Z"/>
    <path class="cls-3" d="M27.16,19.61c-2.29-4.95-8.33-7.85-13.62-7.79-.27-.18-.54-.35-.81-.52-.97-.6-2.48-.13-2.86.98-.45.14-.89.31-1.27.54-.58.35-.99.83-1.27,1.35-.21-.01-.43,0-.64.06-1.31.37-2.26,1.41-2.64,2.7-.39,1.33-.02,2.69.35,3.97.21.73.42,1.45.63,2.18.34,1.76.84,3.48,1.48,5.15.19.5.55.94.99,1.21.73,1.41,2.46,2.27,3.83,3.01,1.76.96,3.6,1.77,5.48,2.45.3.19.66.32,1.03.36.06.02.12.04.18.06,1.39.45,2.42-.69,2.47-1.89,1.72-1.75,3.79-3.15,5.31-5.1,1.99-2.57,2.78-5.69,1.37-8.74Z"/>
    <path class="cls-3" d="M73.49,19.27c-.24-.52-.5-1.02-.75-1.53.03-.25.06-.51.07-.76.05-.36.09-.72.14-1.09.32-2.66.43-5.52-1.58-7.59-.98-1.01-2.39-.59-3.14.4-.1.13-.21.25-.32.36-.69-.21-1.44.03-1.95.51-.24.23-.47.47-.71.7-.05.01-.11.02-.16.04-.16.06-.32.14-.48.2,0,0,0,0,0,0,0,0-.02,0-.02.01-4.47,1.94-7.94,5.83-9.07,10.62-1.36,1.14-1.48,3.17-.16,4.46.22.22.48.38.76.51.07.38.25.75.52,1.1,1.74,2.25,3.62,4.38,5.64,6.39.97.97,2.41.64,3.14-.4,2.49-3.56,4.78-7.25,6.88-11.05.16-.04.32-.08.46-.17,1.01-.59,1.17-1.75.72-2.74Z"/>
    <path class="cls-3" d="M40.83,76.67c-.13,0-.26.02-.38.04-.03-.03-.07-.05-.1-.07-.24-.71-.84-1.27-1.81-1.27-2.1,0-2.49,2.67-1.15,3.65.24.7.85,1.25,1.81,1.25.13,0,.26-.02.38-.04.31.27.73.45,1.26.45,2.57,0,2.58-4,0-4Z"/>
  </g>
  <g id="_벡터_레이어" data-name="벡터 레이어">
    <path class="cls-1" d="M65.25,36.64c-1.55-.62-3.05-2.11-2.23-3.87.79-1.45,2.43-2.14,3.59-3.26,3.37-2.88,5.33-7.18,5.69-11.56,1.09-8.32-7.05-15.24-15.01-12.85-4.31,1.92-5.93,7.52-7.1,11.73-.35,1.58-.27,3.22-.52,4.81-.35,1.26-1.66,2.12-2.96,1.71-1.02-.26-1.97-.95-3.04-.96-2.53-.11-5.28-.07-7.55,1.17-1.14,1.65-3.44,1.97-4.41-.03-1.27-6.28-4.23-13.68-11.16-15.26-5.79-.74-13.02,2.35-15.5,7.83-1.61,5.15,1.59,11.98,5.92,14.93,1.21.94,2.82,1.39,4.29,1.14,1.16-.34,2.47.12,2.96,1.29.38.89.14,1.84-.49,2.54-1.05,1.02-2.66.74-4,.82-3.22-.13-6.02-2.18-8.23-4.37C-3.05,22.36-2,10,11.25,5.07,22.66-.02,32.41,7.7,35.31,18.82c3.2-1.12,6.71-1.33,10.05-.88.82-5.88,3.5-13.28,8.82-16.46,7.58-3.92,17.82.35,21.28,7.94,3.67,8.4.36,19.02-6.88,24.44.77,1.99-1.54,3.85-3.33,2.78Z"/>
    <path class="cls-1" d="M62.85,38.81c-.85-1.45-1.83-3.61-.18-4.87.98-.79,2.48-.56,3.23.41.5.65.45,1.47.93,2.13,1.46,2.65-2.39,4.9-3.98,2.32Z"/>
    <path class="cls-1" d="M9.87,38.65c-.69-1.88,1.1-2.49,2.72-2.67,1.73-.57,4.27-.33,4.38,1.92.04,1.17-1.2,1.92-2.39,1.72-1.56.35-3.86,1.06-4.71-.96Z"/>
    <path class="cls-1" d="M13.55,42.97c-2.26-2.03-.07-4.3,1.43-5.91,1.25-1.68,3.68-3.61,5.37-1.4,1.77,2.62-1.29,4.18-2.62,5.97-.93,1.45-2.67,2.59-4.18,1.33Z"/>
    <path class="cls-1" d="M35.79,83.34c-1-.69-1.47-1.79-2.06-2.8-1.29-.86-2.49-1.84-3.69-2.81-8.16-7.43-20.06-15.74-17.49-28.32.43-2.37,1.8-10.18,4.75-10.02,1.96,0,2.9,2.27,1.85,3.8-3,6.57-3.51,13.7,1.61,19.35,4.72,5.05,9.74,9.9,15.3,14.02.64.4.28,1.8.97,2.17.62,1.14,1.45,1.27,2.77,1.3,0,0-.05.03-.05.03,2.79-.06,3.41-3.61,5.82-4.48,10.13-3.72,16.1-23.02,16.57-32.98.17-1.91-.71-4.86,1.96-5.28,1.23-.17,2.46.72,2.6,1.97.72,12.66-6.59,35.78-19.43,40.6-2.38,3.91-7.39,6.44-11.48,3.44Z"/>
    <path class="cls-1" d="M37.16,83.94c-1.61-.9-3.4-1.8-4.17-3.59-1.59-3.74.86-8.07,5.04-8.19,3.31-.25,7.31,1.11,8.25,4.61.45.87.33,1.98-.4,2.71-6.36-.6-3.62.92-3.58-1.33,0-.29-.09-.59-.31-.78-1.04-.87-3.28-.81-4.44-.42-1.13,1.21.08,1.99,1.17,2.59.38.2.77.39,1.19.5,3.51.87-.2,5.29-2.75,3.89Z"/>
    <path class="cls-1" d="M29.41,51.65c-1.85-3.33,3.53-5.24,4.35-1.55,1.07,2.95-3.31,4.53-4.35,1.55Z"/>
    <path class="cls-1" d="M42.82,53.78c-3.29-1.41-.55-6.82,2.44-4.39,2.56,1.56.16,5.47-2.44,4.39Z"/>
    <path class="cls-1" d="M15.88,80.69c-1.81-4.2,17.96-5.53,19.81-3.38,1.21,1.27-.42,3.27-1.92,2.36-4.73-.58-9.62-.32-14.17,1.13-1.2.47-2.95,1.57-3.72-.11Z"/>
    <path class="cls-1" d="M18.66,88.68c-1.6-2.02,1.76-3.52,2.96-4.75,4.1-2.85,9.34-4.86,14.37-4.47,2.31.52,1.33,3.9-.87,2.97-4.67.14-9.58,2.01-13.05,5.1-.92.84-2.14,2.36-3.41,1.14Z"/>
    <path class="cls-1" d="M64.4,80.91c-4.82-2.46-10.5-3.31-15.82-2.34-1.33.29-2.63.67-3.93,1.08-.41.24-.92.29-1.38.1-.77-.33-1.14-1.24-.82-2.01.36-.85,1.3-1.02,2.09-1.27,4.8-1.68,9.99-1.68,14.93-.62,2.26.46,4.42,1.36,6.47,2.4.74.39.96,1.41.55,2.1-.44.76-1.37.93-2.11.55,0,0,.02,0,.02,0Z"/>
    <path class="cls-1" d="M62.86,88.45c-4.34-4.16-10.64-5.2-16.35-6.19-1.14-.14-2.65.55-3.23-.85-.29-.67-.03-1.49.57-1.87-.14.08-.25.2-.36.32,2.2-1.85,7.76.33,10.42.82,3.1.77,6.18,1.76,8.78,3.66.84.57,1.6,1.23,2.34,1.93,1.4,1.42-.73,3.57-2.18,2.17Z"/>
    <path class="cls-1" d="M65.67,39.48c-.58-.65-1.48-1.3-1.21-2.4-.73-.14-1.18-1.09-.98-1.9.5-1.94,4.78-1.74,6.28-1.81.81.14,1.4,1.2,1.03,2.12-.35,1.03-1.39,1.11-2.21,1.2,1.16,1.28.35,3.35-1.24,2.97-.87-.13-1.85-1-1.67-.17Z"/>
    <path class="cls-1" d="M61.41,36.28c-1.24-3.13-3.28-5.9-5.77-8.15-1.1-1.18-3.5-1.75-3.38-3.66,1.04-7.06,5.47-15.2,13.13-16.37,2.66-.3,6.26.1,7.65,2.71.98,1.35-1.05,2.83-2.07,1.52-.79-1.7-3.07-1.76-4.72-1.75-6.62.67-10.37,7.85-11.39,13.77,4,2.62,7.11,6.51,8.91,10.93.27.64-.04,1.41-.68,1.68-.63.27-1.41-.03-1.68-.68Z"/>
    <path class="cls-1" d="M26.86,26.48c-.2-5.61-4.29-10.95-9.42-13.13-5.12-1.71-11.63.23-14.13,5.22-.54.99-.87,2.85-2.4,2.27-.66-.28-.93-1.03-.68-1.68,2.7-8.15,13.62-11.54,20.69-6.91,3.7,2.5,6.73,6.22,7.96,10.55.31,1.16.69,2.43.38,3.61-.37,1.06-1.97,1.13-2.4.07Z"/>
    <path class="cls-1" d="M17.73,41.88c-.66-.28-.93-1.02-.68-1.68.97-2.66,2.27-5.2,3.92-7.51,1.54-2.21,3.44-4.15,5.24-6.15.53-.55,1.02-1.34,1.87-1.36,1.26-.04,1.74,1.75.69,2.37-2.99,3.2-6.03,6.44-7.98,10.39-.9,1.21-.98,4.61-3.05,3.94Z"/>
  </g>
</svg>